<svg viewBox="0 0 1180 2500" xmlns="http://www.w3.org/2000/svg" font-family="Segoe UI, Helvetica, Arial, sans-serif">
<rect x="0" y="0" width="1180" height="2500" fill="#f8fafc"/>
<defs>
  <marker id="arrowhead" markerWidth="10" markerHeight="10" refX="7" refY="3" orient="auto">
    <path d="M0,0 L8,3 L0,6 z" fill="#64748b"/>
  </marker>
  <filter id="soft-shadow" x="-20%" y="-20%" width="140%" height="140%">
    <feDropShadow dx="0" dy="2" stdDeviation="2.2" flood-color="#0f172a" flood-opacity="0.18"/>
  </filter>
</defs>

<text x="590" y="40.0" text-anchor="middle" font-family="Segoe UI, Helvetica, Arial, sans-serif" font-size="24" font-weight="800" fill="#0f172a">
<tspan x="590" dy="0.0">OPEN CHALLENGE — ALGORITHM STATE MACHINE</tspan>
</text>
<text x="590" y="66.0" text-anchor="middle" font-family="Segoe UI, Helvetica, Arial, sans-serif" font-size="13.5" font-weight="500" fill="#64748b">
<tspan x="590" dy="0.0">task_algorithm.cpp — runs every 50 ms</tspan>
</text>
<ellipse cx="590" cy="120" rx="90.0" ry="28.0" fill="#1e293b" filter="url(#soft-shadow)"/>
<text x="590" y="120.0" text-anchor="middle" font-family="Segoe UI, Helvetica, Arial, sans-serif" font-size="16" font-weight="700" fill="#ffffff">
<tspan x="590" dy="0.0">ROBOT START</tspan>
</text>
<line x1="590" y1="148" x2="590" y2="178" stroke="#64748b" stroke-width="2.2" marker-end="url(#arrowhead)"/>
<rect x="360.0" y="180.0" width="460" height="90" rx="14" fill="#ecfeff" stroke="#0891b2" stroke-width="2" filter="url(#soft-shadow)"/>
<text x="590" y="204.0" text-anchor="middle" font-family="Segoe UI, Helvetica, Arial, sans-serif" font-size="15.5" font-weight="700" fill="#0e7490">
<tspan x="590" dy="0.0">STATE_IDLE</tspan>
</text>
<text x="590" y="228.2" text-anchor="middle" font-family="Segoe UI, Helvetica, Arial, sans-serif" font-size="13" font-weight="400" fill="#334155">
<tspan x="590" dy="0.0">Reset counters &amp; encoder to zero</tspan>
<tspan x="590" dy="17.6">Enable motor, hold heading 0°</tspan>
</text>
<line x1="590" y1="270" x2="590" y2="320" stroke="#64748b" stroke-width="2.2" marker-end="url(#arrowhead)"/>
<rect x="360.0" y="325.0" width="460" height="80" rx="14" fill="#ecfeff" stroke="#0891b2" stroke-width="2" filter="url(#soft-shadow)"/>
<text x="590" y="349.0" text-anchor="middle" font-family="Segoe UI, Helvetica, Arial, sans-serif" font-size="15.5" font-weight="700" fill="#0e7490">
<tspan x="590" dy="0.0">STATE_DETECT_DIR</tspan>
</text>
<text x="590" y="377.0" text-anchor="middle" font-family="Segoe UI, Helvetica, Arial, sans-serif" font-size="13" font-weight="400" fill="#334155">
<tspan x="590" dy="0.0">Drive straight, scan both sides with the Pi camera</tspan>
</text>
<line x1="590" y1="405" x2="590" y2="450" stroke="#64748b" stroke-width="2.2" marker-end="url(#arrowhead)"/>
<polygon points="590,465.0 740.0,520 590,575.0 440.0,520" fill="#fef9c3" stroke="#ca8a04" stroke-width="2" filter="url(#soft-shadow)"/>
<text x="590" y="510.9" text-anchor="middle" font-family="Segoe UI, Helvetica, Arial, sans-serif" font-size="13.5" font-weight="600" fill="#713f12">
<tspan x="590" dy="0.0">Front wall too close?</tspan>
<tspan x="590" dy="18.2">(emergency stop distance)</tspan>
</text>
<line x1="740" y1="520" x2="890" y2="520" stroke="#64748b" stroke-width="2.2" marker-end="url(#arrowhead)"/>
<rect x="799.8" y="499.0" width="30.5" height="18" rx="4" fill="#ffffff" opacity="0.92"/>
<text x="815.0" y="512.0" text-anchor="middle" font-family="Segoe UI, Helvetica, Arial, sans-serif" font-size="12.5" font-weight="700" fill="#64748b">
<tspan x="815.0" dy="0.0">yes</tspan>
</text>
<rect x="865.0" y="487.0" width="190" height="66" rx="14" fill="#fef2f2" stroke="#ef4444" stroke-width="2" filter="url(#soft-shadow)"/>
<text x="960" y="511.0" text-anchor="middle" font-family="Segoe UI, Helvetica, Arial, sans-serif" font-size="15.5" font-weight="700" fill="#b91c1c">
<tspan x="960" dy="0.0">STOP</tspan>
</text>
<text x="960" y="532.0" text-anchor="middle" font-family="Segoe UI, Helvetica, Arial, sans-serif" font-size="13" font-weight="400" fill="#334155">
<tspan x="960" dy="0.0">Motor off, return to IDLE</tspan>
</text>
<path d="M 960,487 Q 1020,370 960,260" fill="none" stroke="#64748b" stroke-width="2.2" marker-end="url(#arrowhead)"/>
<line x1="590" y1="575" x2="590" y2="615" stroke="#64748b" stroke-width="2.2" marker-end="url(#arrowhead)"/>
<rect x="578.2" y="574.0" width="23.6" height="18" rx="4" fill="#ffffff" opacity="0.92"/>
<text x="590.0" y="587.0" text-anchor="middle" font-family="Segoe UI, Helvetica, Arial, sans-serif" font-size="12.5" font-weight="700" fill="#64748b">
<tspan x="590.0" dy="0.0">no</tspan>
</text>
<polygon points="590,625.0 750.0,680 590,735.0 430.0,680" fill="#fef9c3" stroke="#ca8a04" stroke-width="2" filter="url(#soft-shadow)"/>
<text x="590" y="670.9" text-anchor="middle" font-family="Segoe UI, Helvetica, Arial, sans-serif" font-size="13.5" font-weight="600" fill="#713f12">
<tspan x="590" dy="0.0">Camera data fresh?</tspan>
<tspan x="590" dy="18.2">(received within 500 ms)</tspan>
</text>
<line x1="430" y1="680" x2="220" y2="680" stroke="#64748b" stroke-width="2.2" marker-end="url(#arrowhead)"/>
<rect x="313.2" y="659.0" width="23.6" height="18" rx="4" fill="#ffffff" opacity="0.92"/>
<text x="325.0" y="672.0" text-anchor="middle" font-family="Segoe UI, Helvetica, Arial, sans-serif" font-size="12.5" font-weight="700" fill="#64748b">
<tspan x="325.0" dy="0.0">no</tspan>
</text>
<path d="M 220,680 Q 120,540 250,400" fill="none" stroke="#64748b" stroke-width="2.2" marker-end="url(#arrowhead)"/>
<rect x="70.7" y="519.0" width="98.7" height="18" rx="4" fill="#ffffff" opacity="0.92"/>
<text x="120" y="532.0" text-anchor="middle" font-family="Segoe UI, Helvetica, Arial, sans-serif" font-size="12.5" font-weight="700" fill="#64748b">
<tspan x="120" dy="0.0">hold position</tspan>
</text>
<line x1="590" y1="735" x2="590" y2="775" stroke="#64748b" stroke-width="2.2" marker-end="url(#arrowhead)"/>
<rect x="574.8" y="734.0" width="30.5" height="18" rx="4" fill="#ffffff" opacity="0.92"/>
<text x="590.0" y="747.0" text-anchor="middle" font-family="Segoe UI, Helvetica, Arial, sans-serif" font-size="12.5" font-weight="700" fill="#64748b">
<tspan x="590.0" dy="0.0">yes</tspan>
</text>
<polygon points="590,785.0 790.0,855 590,925.0 390.0,855" fill="#fef9c3" stroke="#ca8a04" stroke-width="2" filter="url(#soft-shadow)"/>
<text x="590" y="836.8" text-anchor="middle" font-family="Segoe UI, Helvetica, Arial, sans-serif" font-size="13.5" font-weight="600" fill="#713f12">
<tspan x="590" dy="0.0">Which side opens first?</tspan>
<tspan x="590" dy="18.2">(3 consecutive frames,</tspan>
<tspan x="590" dy="18.2">wall-presence score &lt; 25)</tspan>
</text>
<line x1="790" y1="855" x2="940" y2="855" stroke="#64748b" stroke-width="2.2" marker-end="url(#arrowhead)"/>
<rect x="843.0" y="834.0" width="44.1" height="18" rx="4" fill="#ffffff" opacity="0.92"/>
<text x="865.0" y="847.0" text-anchor="middle" font-family="Segoe UI, Helvetica, Arial, sans-serif" font-size="12.5" font-weight="700" fill="#64748b">
<tspan x="865.0" dy="0.0">right</tspan>
</text>
<rect x="905.0" y="822.0" width="190" height="66" rx="14" fill="#f0fdf4" stroke="#22c55e" stroke-width="2" filter="url(#soft-shadow)"/>
<text x="1000" y="846.0" text-anchor="middle" font-family="Segoe UI, Helvetica, Arial, sans-serif" font-size="15.5" font-weight="700" fill="#15803d">
<tspan x="1000" dy="0.0">dir = +90°</tspan>
</text>
<text x="1000" y="867.0" text-anchor="middle" font-family="Segoe UI, Helvetica, Arial, sans-serif" font-size="13" font-weight="400" fill="#334155">
<tspan x="1000" dy="0.0">turn clockwise</tspan>
</text>
<line x1="390" y1="855" x2="240" y2="855" stroke="#64748b" stroke-width="2.2" marker-end="url(#arrowhead)"/>
<rect x="296.4" y="834.0" width="37.3" height="18" rx="4" fill="#ffffff" opacity="0.92"/>
<text x="315.0" y="847.0" text-anchor="middle" font-family="Segoe UI, Helvetica, Arial, sans-serif" font-size="12.5" font-weight="700" fill="#64748b">
<tspan x="315.0" dy="0.0">left</tspan>
</text>
<rect x="85.0" y="822.0" width="190" height="66" rx="14" fill="#f0fdf4" stroke="#22c55e" stroke-width="2" filter="url(#soft-shadow)"/>
<text x="180" y="846.0" text-anchor="middle" font-family="Segoe UI, Helvetica, Arial, sans-serif" font-size="15.5" font-weight="700" fill="#15803d">
<tspan x="180" dy="0.0">dir = −90°</tspan>
</text>
<text x="180" y="867.0" text-anchor="middle" font-family="Segoe UI, Helvetica, Arial, sans-serif" font-size="13" font-weight="400" fill="#334155">
<tspan x="180" dy="0.0">turn counter-clockwise</tspan>
</text>
<path d="M 590,785 Q 500,770 590,690" fill="none" stroke="#64748b" stroke-width="2.2" marker-end="url(#arrowhead)"/>
<rect x="457.5" y="749.0" width="85.0" height="18" rx="4" fill="#ffffff" opacity="0.92"/>
<text x="500" y="762.0" text-anchor="middle" font-family="Segoe UI, Helvetica, Arial, sans-serif" font-size="12.5" font-weight="700" fill="#64748b">
<tspan x="500" dy="0.0">neither yet</tspan>
</text>
<path d="M 1000,888 Q 1000,950 630,985" fill="none" stroke="#64748b" stroke-width="2.2" marker-end="url(#arrowhead)"/>
<path d="M 180,888 Q 180,950 550,985" fill="none" stroke="#64748b" stroke-width="2.2" marker-end="url(#arrowhead)"/>
<rect x="360.0" y="985.0" width="460" height="90" rx="14" fill="#ecfeff" stroke="#0891b2" stroke-width="2" filter="url(#soft-shadow)"/>
<text x="590" y="1009.0" text-anchor="middle" font-family="Segoe UI, Helvetica, Arial, sans-serif" font-size="15.5" font-weight="700" fill="#0e7490">
<tspan x="590" dy="0.0">STATE_FORWARD</tspan>
</text>
<text x="590" y="1033.2" text-anchor="middle" font-family="Segoe UI, Helvetica, Arial, sans-serif" font-size="13" font-weight="400" fill="#334155">
<tspan x="590" dy="0.0">Drive straight, hold heading with IMU PID</tspan>
<tspan x="590" dy="17.6">Watch the chosen side + front ToF for a corner</tspan>
</text>
<line x1="590" y1="1075" x2="590" y2="1120" stroke="#64748b" stroke-width="2.2" marker-end="url(#arrowhead)"/>
<polygon points="590,1125.0 740.0,1180 590,1235.0 440.0,1180" fill="#fef9c3" stroke="#ca8a04" stroke-width="2" filter="url(#soft-shadow)"/>
<text x="590" y="1170.9" text-anchor="middle" font-family="Segoe UI, Helvetica, Arial, sans-serif" font-size="13.5" font-weight="600" fill="#713f12">
<tspan x="590" dy="0.0">Front wall too close?</tspan>
<tspan x="590" dy="18.2">(emergency stop distance)</tspan>
</text>
<line x1="740" y1="1180" x2="890" y2="1180" stroke="#64748b" stroke-width="2.2" marker-end="url(#arrowhead)"/>
<rect x="799.8" y="1159.0" width="30.5" height="18" rx="4" fill="#ffffff" opacity="0.92"/>
<text x="815.0" y="1172.0" text-anchor="middle" font-family="Segoe UI, Helvetica, Arial, sans-serif" font-size="12.5" font-weight="700" fill="#64748b">
<tspan x="815.0" dy="0.0">yes</tspan>
</text>
<rect x="865.0" y="1147.0" width="190" height="66" rx="14" fill="#fef2f2" stroke="#ef4444" stroke-width="2" filter="url(#soft-shadow)"/>
<text x="960" y="1171.0" text-anchor="middle" font-family="Segoe UI, Helvetica, Arial, sans-serif" font-size="15.5" font-weight="700" fill="#b91c1c">
<tspan x="960" dy="0.0">STOP</tspan>
</text>
<text x="960" y="1192.0" text-anchor="middle" font-family="Segoe UI, Helvetica, Arial, sans-serif" font-size="13" font-weight="400" fill="#334155">
<tspan x="960" dy="0.0">Motor off, return to IDLE</tspan>
</text>
<line x1="590" y1="1235" x2="590" y2="1280" stroke="#64748b" stroke-width="2.2" marker-end="url(#arrowhead)"/>
<rect x="578.2" y="1236.5" width="23.6" height="18" rx="4" fill="#ffffff" opacity="0.92"/>
<text x="590.0" y="1249.5" text-anchor="middle" font-family="Segoe UI, Helvetica, Arial, sans-serif" font-size="12.5" font-weight="700" fill="#64748b">
<tspan x="590.0" dy="0.0">no</tspan>
</text>
<polygon points="590,1285.0 800.0,1360 590,1435.0 380.0,1360" fill="#fef9c3" stroke="#ca8a04" stroke-width="2" filter="url(#soft-shadow)"/>
<text x="590" y="1341.8" text-anchor="middle" font-family="Segoe UI, Helvetica, Arial, sans-serif" font-size="13.5" font-weight="600" fill="#713f12">
<tspan x="590" dy="0.0">Corner detected?</tspan>
<tspan x="590" dy="18.2">(past 150 mm since last turn AND</tspan>
<tspan x="590" dy="18.2">side opened / front warning, ×3 frames)</tspan>
</text>
<line x1="380" y1="1360" x2="130" y2="1360" stroke="#64748b" stroke-width="2.2" marker-end="url(#arrowhead)"/>
<rect x="243.2" y="1339.0" width="23.6" height="18" rx="4" fill="#ffffff" opacity="0.92"/>
<text x="255.0" y="1352.0" text-anchor="middle" font-family="Segoe UI, Helvetica, Arial, sans-serif" font-size="12.5" font-weight="700" fill="#64748b">
<tspan x="255.0" dy="0.0">no</tspan>
</text>
<path d="M 130,1360 Q 60,1180 400,1030" fill="none" stroke="#64748b" stroke-width="2.2" marker-end="url(#arrowhead)"/>
<rect x="14.1" y="1159.0" width="91.8" height="18" rx="4" fill="#ffffff" opacity="0.92"/>
<text x="60" y="1172.0" text-anchor="middle" font-family="Segoe UI, Helvetica, Arial, sans-serif" font-size="12.5" font-weight="700" fill="#64748b">
<tspan x="60" dy="0.0">keep driving</tspan>
</text>
<line x1="590" y1="1435" x2="590" y2="1475" stroke="#64748b" stroke-width="2.2" marker-end="url(#arrowhead)"/>
<rect x="574.8" y="1434.0" width="30.5" height="18" rx="4" fill="#ffffff" opacity="0.92"/>
<text x="590.0" y="1447.0" text-anchor="middle" font-family="Segoe UI, Helvetica, Arial, sans-serif" font-size="12.5" font-weight="700" fill="#64748b">
<tspan x="590.0" dy="0.0">yes</tspan>
</text>
<rect x="380.0" y="1485.0" width="420" height="70" rx="14" fill="#f0fdf4" stroke="#22c55e" stroke-width="2" filter="url(#soft-shadow)"/>
<text x="590" y="1509.0" text-anchor="middle" font-family="Segoe UI, Helvetica, Arial, sans-serif" font-size="15.5" font-weight="700" fill="#15803d">
<tspan x="590" dy="0.0">Record first segment length</tspan>
</text>
<text x="590" y="1532.0" text-anchor="middle" font-family="Segoe UI, Helvetica, Arial, sans-serif" font-size="13" font-weight="400" fill="#334155">
<tspan x="590" dy="0.0">(lap 1 only — used again in STATE_FINISH)</tspan>
</text>
<line x1="590" y1="1555" x2="590" y2="1600" stroke="#64748b" stroke-width="2.2" marker-end="url(#arrowhead)"/>
<rect x="380.0" y="1605.0" width="420" height="70" rx="14" fill="#f0fdf4" stroke="#22c55e" stroke-width="2" filter="url(#soft-shadow)"/>
<text x="590" y="1629.0" text-anchor="middle" font-family="Segoe UI, Helvetica, Arial, sans-serif" font-size="15.5" font-weight="700" fill="#15803d">
<tspan x="590" dy="0.0">Request turn</tspan>
</text>
<text x="590" y="1652.0" text-anchor="middle" font-family="Segoe UI, Helvetica, Arial, sans-serif" font-size="13" font-weight="400" fill="#334155">
<tspan x="590" dy="0.0">target heading = current heading + dir</tspan>
</text>
<line x1="590" y1="1675" x2="590" y2="1715" stroke="#64748b" stroke-width="2.2" marker-end="url(#arrowhead)"/>
<rect x="360.0" y="1717.5" width="460" height="85" rx="14" fill="#fff7ed" stroke="#f97316" stroke-width="2" filter="url(#soft-shadow)"/>
<text x="590" y="1741.5" text-anchor="middle" font-family="Segoe UI, Helvetica, Arial, sans-serif" font-size="15.5" font-weight="700" fill="#c2410c">
<tspan x="590" dy="0.0">STATE_TURNING</tspan>
</text>
<text x="590" y="1772.0" text-anchor="middle" font-family="Segoe UI, Helvetica, Arial, sans-serif" font-size="13" font-weight="400" fill="#334155">
<tspan x="590" dy="0.0">Servo executes the turn via PID (turn_control)</tspan>
</text>
<line x1="590" y1="1802" x2="590" y2="1845" stroke="#64748b" stroke-width="2.2" marker-end="url(#arrowhead)"/>
<polygon points="590,1852.5 740.0,1905 590,1957.5 440.0,1905" fill="#fef9c3" stroke="#ca8a04" stroke-width="2" filter="url(#soft-shadow)"/>
<text x="590" y="1895.9" text-anchor="middle" font-family="Segoe UI, Helvetica, Arial, sans-serif" font-size="13.5" font-weight="600" fill="#713f12">
<tspan x="590" dy="0.0">Turn settled?</tspan>
<tspan x="590" dy="18.2">(ctrl_turn_done)</tspan>
</text>
<line x1="740" y1="1905" x2="825" y2="1905" stroke="#64748b" stroke-width="2.2" marker-end="url(#arrowhead)"/>
<path d="M 825,1905 Q 870,1880 740,1860" fill="none" stroke="#64748b" stroke-width="2.2" marker-end="url(#arrowhead)"/>
<rect x="851.4" y="1859.0" width="37.3" height="18" rx="4" fill="#ffffff" opacity="0.92"/>
<text x="870" y="1872.0" text-anchor="middle" font-family="Segoe UI, Helvetica, Arial, sans-serif" font-size="12.5" font-weight="700" fill="#64748b">
<tspan x="870" dy="0.0">wait</tspan>
</text>
<line x1="590" y1="1957" x2="590" y2="2000" stroke="#64748b" stroke-width="2.2" marker-end="url(#arrowhead)"/>
<rect x="574.8" y="1957.5" width="30.5" height="18" rx="4" fill="#ffffff" opacity="0.92"/>
<text x="590.0" y="1970.5" text-anchor="middle" font-family="Segoe UI, Helvetica, Arial, sans-serif" font-size="12.5" font-weight="700" fill="#64748b">
<tspan x="590.0" dy="0.0">yes</tspan>
</text>
<rect x="360.0" y="2002.5" width="460" height="95" rx="14" fill="#f0fdf4" stroke="#22c55e" stroke-width="2" filter="url(#soft-shadow)"/>
<text x="590" y="2026.5" text-anchor="middle" font-family="Segoe UI, Helvetica, Arial, sans-serif" font-size="15.5" font-weight="700" fill="#15803d">
<tspan x="590" dy="0.0">Update navigation state</tspan>
</text>
<text x="590" y="2053.2" text-anchor="middle" font-family="Segoe UI, Helvetica, Arial, sans-serif" font-size="13" font-weight="400" fill="#334155">
<tspan x="590" dy="0.0">heading += dir, turn_count++, reset encoder</tspan>
<tspan x="590" dy="17.6">turn_count % 4 == 0 → lap_count++</tspan>
</text>
<line x1="590" y1="2098" x2="590" y2="2140" stroke="#64748b" stroke-width="2.2" marker-end="url(#arrowhead)"/>
<polygon points="590,2147.5 730.0,2200 590,2252.5 450.0,2200" fill="#fef9c3" stroke="#ca8a04" stroke-width="2" filter="url(#soft-shadow)"/>
<text x="590" y="2200.0" text-anchor="middle" font-family="Segoe UI, Helvetica, Arial, sans-serif" font-size="13.5" font-weight="600" fill="#713f12">
<tspan x="590" dy="0.0">3 laps complete?</tspan>
</text>
<line x1="450" y1="2200" x2="80" y2="2200" stroke="#64748b" stroke-width="2.2" marker-end="url(#arrowhead)"/>
<rect x="253.2" y="2179.0" width="23.6" height="18" rx="4" fill="#ffffff" opacity="0.92"/>
<text x="265.0" y="2192.0" text-anchor="middle" font-family="Segoe UI, Helvetica, Arial, sans-serif" font-size="12.5" font-weight="700" fill="#64748b">
<tspan x="265.0" dy="0.0">no</tspan>
</text>
<path d="M 80,2200 Q 20,1600 370,1030" fill="none" stroke="#64748b" stroke-width="2.2" marker-end="url(#arrowhead)"/>
<rect x="-25.9" y="1579.0" width="91.8" height="18" rx="4" fill="#ffffff" opacity="0.92"/>
<text x="20" y="1592.0" text-anchor="middle" font-family="Segoe UI, Helvetica, Arial, sans-serif" font-size="12.5" font-weight="700" fill="#64748b">
<tspan x="20" dy="0.0">next segment</tspan>
</text>
<line x1="590" y1="2252" x2="590" y2="2295" stroke="#64748b" stroke-width="2.2" marker-end="url(#arrowhead)"/>
<rect x="574.8" y="2252.5" width="30.5" height="18" rx="4" fill="#ffffff" opacity="0.92"/>
<text x="590.0" y="2265.5" text-anchor="middle" font-family="Segoe UI, Helvetica, Arial, sans-serif" font-size="12.5" font-weight="700" fill="#64748b">
<tspan x="590.0" dy="0.0">yes</tspan>
</text>
<rect x="360.0" y="2297.5" width="460" height="85" rx="14" fill="#ecfeff" stroke="#0891b2" stroke-width="2" filter="url(#soft-shadow)"/>
<text x="590" y="2321.5" text-anchor="middle" font-family="Segoe UI, Helvetica, Arial, sans-serif" font-size="15.5" font-weight="700" fill="#0e7490">
<tspan x="590" dy="0.0">STATE_FINISH</tspan>
</text>
<text x="590" y="2352.0" text-anchor="middle" font-family="Segoe UI, Helvetica, Arial, sans-serif" font-size="13" font-weight="400" fill="#334155">
<tspan x="590" dy="0.0">Drive remaining distance to complete the start segment</tspan>
</text>
<line x1="590" y1="2382" x2="590" y2="2420" stroke="#64748b" stroke-width="2.2" marker-end="url(#arrowhead)"/>
<polygon points="590,2415.0 760.0,2460 590,2505.0 420.0,2460" fill="#fef9c3" stroke="#ca8a04" stroke-width="2" filter="url(#soft-shadow)"/>
<text x="590" y="2450.9" text-anchor="middle" font-family="Segoe UI, Helvetica, Arial, sans-serif" font-size="13.5" font-weight="600" fill="#713f12">
<tspan x="590" dy="0.0">Distance reached OR</tspan>
<tspan x="590" dy="18.2">front wall too close?</tspan>
</text>
<text x="590" y="2497.0" text-anchor="middle" font-family="Segoe UI, Helvetica, Arial, sans-serif" font-size="12.5" font-weight="600" fill="#475569">
<tspan x="590" dy="0.0">no → keep driving  |  yes → STOP, return to STATE_IDLE</tspan>
</text>
<text x="60" y="130.0" text-anchor="start" font-family="Segoe UI, Helvetica, Arial, sans-serif" font-size="14" font-weight="700" fill="#1e293b">
<tspan x="60" dy="0.0">Legend</tspan>
</text>
<rect x="60" y="141" width="20" height="16" rx="4" fill="#ecfeff" stroke="#0891b2" stroke-width="1.6"/>
<text x="90" y="150.0" text-anchor="start" font-family="Segoe UI, Helvetica, Arial, sans-serif" font-size="12.5" font-weight="500" fill="#334155">
<tspan x="90" dy="0.0">State (drives / holds heading)</tspan>
</text>
<rect x="60" y="165" width="20" height="16" rx="4" fill="#fef9c3" stroke="#ca8a04" stroke-width="1.6"/>
<text x="90" y="174.0" text-anchor="start" font-family="Segoe UI, Helvetica, Arial, sans-serif" font-size="12.5" font-weight="500" fill="#334155">
<tspan x="90" dy="0.0">Decision</tspan>
</text>
<rect x="60" y="189" width="20" height="16" rx="4" fill="#f0fdf4" stroke="#22c55e" stroke-width="1.6"/>
<text x="90" y="198.0" text-anchor="start" font-family="Segoe UI, Helvetica, Arial, sans-serif" font-size="12.5" font-weight="500" fill="#334155">
<tspan x="90" dy="0.0">Action / transition step</tspan>
</text>
<rect x="60" y="213" width="20" height="16" rx="4" fill="#fff7ed" stroke="#f97316" stroke-width="1.6"/>
<text x="90" y="222.0" text-anchor="start" font-family="Segoe UI, Helvetica, Arial, sans-serif" font-size="12.5" font-weight="500" fill="#334155">
<tspan x="90" dy="0.0">Turning state</tspan>
</text>
<rect x="60" y="237" width="20" height="16" rx="4" fill="#fef2f2" stroke="#ef4444" stroke-width="1.6"/>
<text x="90" y="246.0" text-anchor="start" font-family="Segoe UI, Helvetica, Arial, sans-serif" font-size="12.5" font-weight="500" fill="#334155">
<tspan x="90" dy="0.0">Safety stop</tspan>
</text>

</svg>