<svg viewBox="0 0 1300 820" xmlns="http://www.w3.org/2000/svg" font-family="Segoe UI, Helvetica, Arial, sans-serif">
<rect x="0" y="0" width="1300" height="820" fill="#f8fafc"/>
<defs>
  <marker id="arrowhead" markerWidth="10" markerHeight="10" refX="7" refY="3" orient="auto">
    <path d="M0,0 L8,3 L0,6 z" fill="#64748b"/>
  </marker>
  <filter id="soft-shadow" x="-20%" y="-20%" width="140%" height="140%">
    <feDropShadow dx="0" dy="2" stdDeviation="2.2" flood-color="#0f172a" flood-opacity="0.18"/>
  </filter>
</defs>

<text x="650.0" y="42.0" text-anchor="middle" font-family="Segoe UI, Helvetica, Arial, sans-serif" font-size="24" font-weight="800" fill="#0f172a">
<tspan x="650.0" dy="0.0">STEP RESPONSE BY TUNING STAGE</tspan>
</text>
<text x="650.0" y="68.0" text-anchor="middle" font-family="Segoe UI, Helvetica, Arial, sans-serif" font-size="13.5" font-weight="500" fill="#64748b">
<tspan x="650.0" dy="0.0">Simulated 90° turn response using the actual turn_control gains, added one term at a time</tspan>
</text>
<line x1="110.0" y1="130" x2="110.0" y2="660" stroke="#e2e8f0" stroke-width="1"/>
<text x="110.0" y="682.0" text-anchor="middle" font-family="Segoe UI, Helvetica, Arial, sans-serif" font-size="11.5" font-weight="500" fill="#94a3b8">
<tspan x="110.0" dy="0.0">0s</tspan>
</text>
<line x1="250.0" y1="130" x2="250.0" y2="660" stroke="#e2e8f0" stroke-width="1"/>
<text x="250.0" y="682.0" text-anchor="middle" font-family="Segoe UI, Helvetica, Arial, sans-serif" font-size="11.5" font-weight="500" fill="#94a3b8">
<tspan x="250.0" dy="0.0">1s</tspan>
</text>
<line x1="390.0" y1="130" x2="390.0" y2="660" stroke="#e2e8f0" stroke-width="1"/>
<text x="390.0" y="682.0" text-anchor="middle" font-family="Segoe UI, Helvetica, Arial, sans-serif" font-size="11.5" font-weight="500" fill="#94a3b8">
<tspan x="390.0" dy="0.0">2s</tspan>
</text>
<line x1="530.0" y1="130" x2="530.0" y2="660" stroke="#e2e8f0" stroke-width="1"/>
<text x="530.0" y="682.0" text-anchor="middle" font-family="Segoe UI, Helvetica, Arial, sans-serif" font-size="11.5" font-weight="500" fill="#94a3b8">
<tspan x="530.0" dy="0.0">3s</tspan>
</text>
<line x1="670.0" y1="130" x2="670.0" y2="660" stroke="#e2e8f0" stroke-width="1"/>
<text x="670.0" y="682.0" text-anchor="middle" font-family="Segoe UI, Helvetica, Arial, sans-serif" font-size="11.5" font-weight="500" fill="#94a3b8">
<tspan x="670.0" dy="0.0">4s</tspan>
</text>
<line x1="810.0" y1="130" x2="810.0" y2="660" stroke="#e2e8f0" stroke-width="1"/>
<text x="810.0" y="682.0" text-anchor="middle" font-family="Segoe UI, Helvetica, Arial, sans-serif" font-size="11.5" font-weight="500" fill="#94a3b8">
<tspan x="810.0" dy="0.0">5s</tspan>
</text>
<line x1="950.0" y1="130" x2="950.0" y2="660" stroke="#e2e8f0" stroke-width="1"/>
<text x="950.0" y="682.0" text-anchor="middle" font-family="Segoe UI, Helvetica, Arial, sans-serif" font-size="11.5" font-weight="500" fill="#94a3b8">
<tspan x="950.0" dy="0.0">6s</tspan>
</text>
<line x1="1090.0" y1="130" x2="1090.0" y2="660" stroke="#e2e8f0" stroke-width="1"/>
<text x="1090.0" y="682.0" text-anchor="middle" font-family="Segoe UI, Helvetica, Arial, sans-serif" font-size="11.5" font-weight="500" fill="#94a3b8">
<tspan x="1090.0" dy="0.0">7s</tspan>
</text>
<line x1="1230.0" y1="130" x2="1230.0" y2="660" stroke="#e2e8f0" stroke-width="1"/>
<text x="1230.0" y="682.0" text-anchor="middle" font-family="Segoe UI, Helvetica, Arial, sans-serif" font-size="11.5" font-weight="500" fill="#94a3b8">
<tspan x="1230.0" dy="0.0">8s</tspan>
</text>
<line x1="110" y1="637.3504273504274" x2="1230" y2="637.3504273504274" stroke="#e2e8f0" stroke-width="1"/>
<text x="96" y="641.4" text-anchor="end" font-family="Segoe UI, Helvetica, Arial, sans-serif" font-size="11.5" font-weight="500" fill="#94a3b8">
<tspan x="96" dy="0.0">0°</tspan>
</text>
<line x1="110" y1="546.7521367521367" x2="1230" y2="546.7521367521367" stroke="#e2e8f0" stroke-width="1"/>
<text x="96" y="550.8" text-anchor="end" font-family="Segoe UI, Helvetica, Arial, sans-serif" font-size="11.5" font-weight="500" fill="#94a3b8">
<tspan x="96" dy="0.0">20°</tspan>
</text>
<line x1="110" y1="456.15384615384613" x2="1230" y2="456.15384615384613" stroke="#e2e8f0" stroke-width="1"/>
<text x="96" y="460.2" text-anchor="end" font-family="Segoe UI, Helvetica, Arial, sans-serif" font-size="11.5" font-weight="500" fill="#94a3b8">
<tspan x="96" dy="0.0">40°</tspan>
</text>
<line x1="110" y1="365.55555555555554" x2="1230" y2="365.55555555555554" stroke="#e2e8f0" stroke-width="1"/>
<text x="96" y="369.6" text-anchor="end" font-family="Segoe UI, Helvetica, Arial, sans-serif" font-size="11.5" font-weight="500" fill="#94a3b8">
<tspan x="96" dy="0.0">60°</tspan>
</text>
<line x1="110" y1="274.95726495726495" x2="1230" y2="274.95726495726495" stroke="#e2e8f0" stroke-width="1"/>
<text x="96" y="279.0" text-anchor="end" font-family="Segoe UI, Helvetica, Arial, sans-serif" font-size="11.5" font-weight="500" fill="#94a3b8">
<tspan x="96" dy="0.0">80°</tspan>
</text>
<line x1="110" y1="184.35897435897436" x2="1230" y2="184.35897435897436" stroke="#e2e8f0" stroke-width="1"/>
<text x="96" y="188.4" text-anchor="end" font-family="Segoe UI, Helvetica, Arial, sans-serif" font-size="11.5" font-weight="500" fill="#94a3b8">
<tspan x="96" dy="0.0">100°</tspan>
</text>
<line x1="110" y1="93.76068376068372" x2="1230" y2="93.76068376068372" stroke="#e2e8f0" stroke-width="1"/>
<text x="96" y="97.8" text-anchor="end" font-family="Segoe UI, Helvetica, Arial, sans-serif" font-size="11.5" font-weight="500" fill="#94a3b8">
<tspan x="96" dy="0.0">120°</tspan>
</text>
<line x1="110" y1="660" x2="1230" y2="660" stroke="#334155" stroke-width="1.6"/>
<line x1="110" y1="130" x2="110" y2="660" stroke="#334155" stroke-width="1.6"/>
<text x="670.0" y="710.0" text-anchor="middle" font-family="Segoe UI, Helvetica, Arial, sans-serif" font-size="13" font-weight="700" fill="#334155">
<tspan x="670.0" dy="0.0">Time (s)</tspan>
</text>
<text x="40" y="395.0" text-anchor="middle" font-family="Segoe UI, Helvetica, Arial, sans-serif" font-size="13" font-weight="700" fill="#334155">
<tspan x="40" dy="0.0">Yaw (°)</tspan>
</text>
<line x1="110" y1="229.65811965811963" x2="1230" y2="229.65811965811963" stroke="#0f172a" stroke-width="1.8" stroke-dasharray="8,5"/>
<text x="1226" y="219.7" text-anchor="end" font-family="Segoe UI, Helvetica, Arial, sans-serif" font-size="12.5" font-weight="700" fill="#0f172a">
<tspan x="1226" dy="0.0">target: 90°</tspan>
</text>
<polyline points="110.0,637.4 114.2,637.4 118.4,636.9 122.6,635.3 126.8,632.3 131.0,627.9 135.2,622.1 139.4,614.8 143.6,606.3 147.8,596.5 152.0,585.5 156.2,573.6 160.4,560.7 164.6,546.9 168.8,532.5 173.0,517.4 177.2,501.6 181.4,485.4 185.6,468.7 189.8,451.5 194.0,434.0 198.2,416.2 202.4,398.1 206.6,379.7 210.8,361.2 215.0,342.7 219.2,324.4 223.4,306.5 227.6,289.3 231.8,272.9 236.0,257.5 240.2,243.3 244.4,230.5 248.6,219.0 252.8,209.0 257.0,200.6 261.2,193.8 265.4,188.5 269.6,184.7 273.8,182.4 278.0,181.6 282.2,182.1 286.4,183.8 290.6,186.6 294.8,190.5 299.0,195.2 303.2,200.6 307.4,206.7 311.6,213.2 315.8,220.0 320.0,227.1 324.2,234.2 328.4,241.3 332.6,248.2 336.8,254.9 341.0,261.3 345.2,267.3 349.4,272.8 353.6,277.8 357.8,282.2 362.0,286.0 366.2,289.2 370.4,291.8 374.6,293.7 378.8,295.1 383.0,295.9 387.2,296.1 391.4,295.8 395.6,295.0 399.8,293.8 404.0,292.2 408.2,290.3 412.4,288.1 416.6,285.7 420.8,283.0 425.0,280.3 429.2,277.5 433.4,274.7 437.6,271.9 441.8,269.2 446.0,266.5 450.2,264.0 454.4,261.7 458.6,259.6 462.8,257.7 467.0,256.0 471.2,254.5 475.4,253.3 479.6,252.3 483.8,251.6 488.0,251.1 492.2,250.8 496.4,250.8 500.6,251.0 504.8,251.3 509.0,251.8 513.2,252.5 517.4,253.3 521.6,254.2 525.8,255.1 530.0,256.2 534.2,257.3 538.4,258.4 542.6,259.5 546.8,260.6 551.0,261.7 555.2,262.7 559.4,263.7 563.6,264.6 567.8,265.4 572.0,266.1 576.2,266.8 580.4,267.4 584.6,267.8 588.8,268.2 593.0,268.4 597.2,268.6 601.4,268.7 605.6,268.7 609.8,268.6 614.0,268.5 618.2,268.3 622.4,268.0 626.6,267.7 630.8,267.3 635.0,266.9 639.2,266.5 643.4,266.1 647.6,265.6 651.8,265.2 656.0,264.7 660.2,264.3 664.4,263.9 668.6,263.5 672.8,263.2 677.0,262.9 681.2,262.6 685.4,262.3 689.6,262.1 693.8,261.9 698.0,261.8 702.2,261.7 706.4,261.6 710.6,261.6 714.8,261.6 719.0,261.7 723.2,261.7 727.4,261.8 731.6,261.9 735.8,262.1 740.0,262.2 744.2,262.4 748.4,262.5 752.6,262.7 756.8,262.9 761.0,263.1 765.2,263.2 769.4,263.4 773.6,263.5 777.8,263.7 782.0,263.8 786.2,264.0 790.4,264.1 794.6,264.2 798.8,264.2 803.0,264.3 807.2,264.4 811.4,264.4 815.6,264.4 819.8,264.4 824.0,264.4 828.2,264.4 832.4,264.4 836.6,264.3 840.8,264.3 845.0,264.2 849.2,264.2 853.4,264.1 857.6,264.1 861.8,264.0 866.0,263.9 870.2,263.8 874.4,263.8 878.6,263.7 882.8,263.7 887.0,263.6 891.2,263.5 895.4,263.5 899.6,263.5 903.8,263.4 908.0,263.4 912.2,263.4 916.4,263.3 920.6,263.3 924.8,263.3 929.0,263.3 933.2,263.3 937.4,263.3 941.6,263.3 945.8,263.4 950.0,263.4 954.2,263.4 958.4,263.4 962.6,263.4 966.8,263.5 971.0,263.5 975.2,263.5 979.4,263.6 983.6,263.6 987.8,263.6 992.0,263.6 996.2,263.7 1000.4,263.7 1004.6,263.7 1008.8,263.7 1013.0,263.7 1017.2,263.7 1021.4,263.7 1025.6,263.7 1029.8,263.8 1034.0,263.8 1038.2,263.8 1042.4,263.8 1046.6,263.8 1050.8,263.7 1055.0,263.7 1059.2,263.7 1063.4,263.7 1067.6,263.7 1071.8,263.7 1076.0,263.7 1080.2,263.7 1084.4,263.7 1088.6,263.7 1092.8,263.7 1097.0,263.6 1101.2,263.6 1105.4,263.6 1109.6,263.6 1113.8,263.6 1118.0,263.6 1122.2,263.6 1126.4,263.6 1130.6,263.6 1134.8,263.6 1139.0,263.6 1143.2,263.6 1147.4,263.6 1151.6,263.6 1155.8,263.6 1160.0,263.6 1164.2,263.6 1168.4,263.6 1172.6,263.6 1176.8,263.6 1181.0,263.6 1185.2,263.6 1189.4,263.6 1193.6,263.6 1197.8,263.6 1202.0,263.6 1206.2,263.6 1210.4,263.6 1214.6,263.6 1218.8,263.6 1223.0,263.6 1227.2,263.6" fill="none" stroke="#dc2626" stroke-width="3.2" stroke-linejoin="round" stroke-linecap="round"/>
<polyline points="110.0,637.4 114.2,637.4 118.4,636.9 122.6,635.3 126.8,632.3 131.0,627.9 135.2,622.1 139.4,614.8 143.6,606.3 147.8,596.5 152.0,585.5 156.2,573.6 160.4,560.7 164.6,546.9 168.8,532.5 173.0,517.4 177.2,501.6 181.4,485.4 185.6,468.7 189.8,451.5 194.0,434.0 198.2,416.2 202.4,398.2 206.6,380.2 210.8,362.4 215.0,345.1 219.2,328.3 223.4,312.4 227.6,297.4 231.8,283.5 236.0,270.9 240.2,259.5 244.4,249.5 248.6,240.8 252.8,233.4 257.0,227.4 261.2,222.7 265.4,219.1 269.6,216.8 273.8,215.4 278.0,215.1 282.2,215.6 286.4,216.8 290.6,218.7 294.8,221.2 299.0,224.1 303.2,227.4 307.4,230.9 311.6,234.6 315.8,238.3 320.0,242.1 324.2,245.8 328.4,249.5 332.6,252.9 336.8,256.2 341.0,259.2 345.2,262.0 349.4,264.5 353.6,266.7 357.8,268.6 362.0,270.2 366.2,271.5 370.4,272.6 374.6,273.4 378.8,273.9 383.0,274.2 387.2,274.3 391.4,274.2 395.6,273.9 399.8,273.5 404.0,273.0 408.2,272.3 412.4,271.6 416.6,270.8 420.8,270.0 425.0,269.2 429.2,268.4 433.4,267.6 437.6,266.8 441.8,266.0 446.0,265.3 450.2,264.6 454.4,264.0 458.6,263.5 462.8,263.0 467.0,262.6 471.2,262.2 475.4,261.9 479.6,261.7 483.8,261.5 488.0,261.4 492.2,261.3 496.4,261.3 500.6,261.3 504.8,261.4 509.0,261.5 513.2,261.6 517.4,261.7 521.6,261.9 525.8,262.0 530.0,262.2 534.2,262.4 538.4,262.6 542.6,262.8 546.8,262.9 551.0,263.1 555.2,263.3 559.4,263.4 563.6,263.5 567.8,263.7 572.0,263.8 576.2,263.9 580.4,263.9 584.6,264.0 588.8,264.1 593.0,264.1 597.2,264.1 601.4,264.1 605.6,264.1 609.8,264.1 614.0,264.1 618.2,264.1 622.4,264.1 626.6,264.1 630.8,264.0 635.0,264.0 639.2,263.9 643.4,263.9 647.6,263.9 651.8,263.8 656.0,263.8 660.2,263.7 664.4,263.7 668.6,263.7 672.8,263.7 677.0,263.6 681.2,263.6 685.4,263.6 689.6,263.6 693.8,263.5 698.0,263.5 702.2,263.5 706.4,263.5 710.6,263.5 714.8,263.5 719.0,263.5 723.2,263.5 727.4,263.5 731.6,263.5 735.8,263.5 740.0,263.5 744.2,263.6 748.4,263.6 752.6,263.6 756.8,263.6 761.0,263.6 765.2,263.6 769.4,263.6 773.6,263.6 777.8,263.6 782.0,263.6 786.2,263.6 790.4,263.6 794.6,263.6 798.8,263.6 803.0,263.7 807.2,263.7 811.4,263.7 815.6,263.7 819.8,263.7 824.0,263.7 828.2,263.7 832.4,263.7 836.6,263.7 840.8,263.7 845.0,263.7 849.2,263.7 853.4,263.6 857.6,263.6 861.8,263.6 866.0,263.6 870.2,263.6 874.4,263.6 878.6,263.6 882.8,263.6 887.0,263.6 891.2,263.6 895.4,263.6 899.6,263.6 903.8,263.6 908.0,263.6 912.2,263.6 916.4,263.6 920.6,263.6 924.8,263.6 929.0,263.6 933.2,263.6 937.4,263.6 941.6,263.6 945.8,263.6 950.0,263.6 954.2,263.6 958.4,263.6 962.6,263.6 966.8,263.6 971.0,263.6 975.2,263.6 979.4,263.6 983.6,263.6 987.8,263.6 992.0,263.6 996.2,263.6 1000.4,263.6 1004.6,263.6 1008.8,263.6 1013.0,263.6 1017.2,263.6 1021.4,263.6 1025.6,263.6 1029.8,263.6 1034.0,263.6 1038.2,263.6 1042.4,263.6 1046.6,263.6 1050.8,263.6 1055.0,263.6 1059.2,263.6 1063.4,263.6 1067.6,263.6 1071.8,263.6 1076.0,263.6 1080.2,263.6 1084.4,263.6 1088.6,263.6 1092.8,263.6 1097.0,263.6 1101.2,263.6 1105.4,263.6 1109.6,263.6 1113.8,263.6 1118.0,263.6 1122.2,263.6 1126.4,263.6 1130.6,263.6 1134.8,263.6 1139.0,263.6 1143.2,263.6 1147.4,263.6 1151.6,263.6 1155.8,263.6 1160.0,263.6 1164.2,263.6 1168.4,263.6 1172.6,263.6 1176.8,263.6 1181.0,263.6 1185.2,263.6 1189.4,263.6 1193.6,263.6 1197.8,263.6 1202.0,263.6 1206.2,263.6 1210.4,263.6 1214.6,263.6 1218.8,263.6 1223.0,263.6 1227.2,263.6" fill="none" stroke="#d97706" stroke-width="3.2" stroke-linejoin="round" stroke-linecap="round"/>
<polyline points="110.0,637.4 114.2,637.4 118.4,636.9 122.6,635.3 126.8,632.3 131.0,627.9 135.2,622.1 139.4,614.8 143.6,606.3 147.8,596.5 152.0,585.5 156.2,573.6 160.4,560.7 164.6,546.9 168.8,532.5 173.0,517.4 177.2,501.6 181.4,485.4 185.6,468.7 189.8,451.5 194.0,434.0 198.2,416.2 202.4,398.1 206.6,379.8 210.8,361.6 215.0,343.5 219.2,325.9 223.4,308.9 227.6,292.7 231.8,277.5 236.0,263.4 240.2,250.4 244.4,238.8 248.6,228.5 252.8,219.5 257.0,211.9 261.2,205.7 265.4,200.7 269.6,196.9 273.8,194.3 278.0,192.8 282.2,192.3 286.4,192.7 290.6,193.8 294.8,195.7 299.0,198.1 303.2,200.9 307.4,204.2 311.6,207.7 315.8,211.4 320.0,215.3 324.2,219.1 328.4,223.0 332.6,226.7 336.8,230.3 341.0,233.7 345.2,236.8 349.4,239.7 353.6,242.4 357.8,244.7 362.0,246.7 366.2,248.5 370.4,249.9 374.6,251.1 378.8,251.9 383.0,252.5 387.2,252.9 391.4,253.0 395.6,253.0 399.8,252.7 404.0,252.3 408.2,251.8 412.4,251.1 416.6,250.4 420.8,249.5 425.0,248.7 429.2,247.8 433.4,246.9 437.6,246.0 441.8,245.1 446.0,244.2 450.2,243.4 454.4,242.7 458.6,242.0 462.8,241.3 467.0,240.7 471.2,240.2 475.4,239.8 479.6,239.4 483.8,239.1 488.0,238.8 492.2,238.6 496.4,238.5 500.6,238.4 504.8,238.4 509.0,238.4 513.2,238.4 517.4,238.5 521.6,238.6 525.8,238.7 530.0,238.9 534.2,239.0 538.4,239.2 542.6,239.3 546.8,239.5 551.0,239.6 555.2,239.8 559.4,239.9 563.6,240.1 567.8,240.2 572.0,240.3 576.2,240.4 580.4,240.5 584.6,240.6 588.8,240.6 593.0,240.6 597.2,240.7 601.4,240.7 605.6,240.7 609.8,240.7 614.0,240.6 618.2,240.6 622.4,240.6 626.6,240.5 630.8,240.4 635.0,240.4 639.2,240.3 643.4,240.2 647.6,240.2 651.8,240.1 656.0,240.0 660.2,240.0 664.4,239.9 668.6,239.8 672.8,239.7 677.0,239.7 681.2,239.6 685.4,239.6 689.6,239.5 693.8,239.5 698.0,239.4 702.2,239.4 706.4,239.3 710.6,239.3 714.8,239.3 719.0,239.2 723.2,239.2 727.4,239.2 731.6,239.1 735.8,239.1 740.0,239.1 744.2,239.1 748.4,239.1 752.6,239.0 756.8,239.0 761.0,239.0 765.2,239.0 769.4,239.0 773.6,239.0 777.8,238.9 782.0,238.9 786.2,238.9 790.4,238.9 794.6,238.9 798.8,238.8 803.0,238.8 807.2,238.8 811.4,238.8 815.6,238.7 819.8,238.7 824.0,238.7 828.2,238.7 832.4,238.6 836.6,238.6 840.8,238.6 845.0,238.6 849.2,238.5 853.4,238.5 857.6,238.5 861.8,238.5 866.0,238.4 870.2,238.4 874.4,238.4 878.6,238.4 882.8,238.3 887.0,238.3 891.2,238.3 895.4,238.2 899.6,238.2 903.8,238.2 908.0,238.2 912.2,238.1 916.4,238.1 920.6,238.1 924.8,238.1 929.0,238.0 933.2,238.0 937.4,238.0 941.6,238.0 945.8,237.9 950.0,237.9 954.2,237.9 958.4,237.9 962.6,237.8 966.8,237.8 971.0,237.8 975.2,237.8 979.4,237.8 983.6,237.7 987.8,237.7 992.0,237.7 996.2,237.7 1000.4,237.6 1004.6,237.6 1008.8,237.6 1013.0,237.6 1017.2,237.6 1021.4,237.5 1025.6,237.5 1029.8,237.5 1034.0,237.5 1038.2,237.4 1042.4,237.4 1046.6,237.4 1050.8,237.4 1055.0,237.4 1059.2,237.3 1063.4,237.3 1067.6,237.3 1071.8,237.3 1076.0,237.2 1080.2,237.2 1084.4,237.2 1088.6,237.2 1092.8,237.2 1097.0,237.1 1101.2,237.1 1105.4,237.1 1109.6,237.1 1113.8,237.0 1118.0,237.0 1122.2,237.0 1126.4,237.0 1130.6,237.0 1134.8,236.9 1139.0,236.9 1143.2,236.9 1147.4,236.9 1151.6,236.9 1155.8,236.8 1160.0,236.8 1164.2,236.8 1168.4,236.8 1172.6,236.8 1176.8,236.7 1181.0,236.7 1185.2,236.7 1189.4,236.7 1193.6,236.7 1197.8,236.6 1202.0,236.6 1206.2,236.6 1210.4,236.6 1214.6,236.6 1218.8,236.5 1223.0,236.5 1227.2,236.5" fill="none" stroke="#16a34a" stroke-width="3.2" stroke-linejoin="round" stroke-linecap="round"/>
<circle cx="278.0" cy="181.6410256410257" r="4.5" fill="#dc2626"/>
<text x="288.0" y="173.6" text-anchor="start" font-family="Segoe UI, Helvetica, Arial, sans-serif" font-size="12" font-weight="700" fill="#b91c1c">
<tspan x="288.0" dy="0.0">overshoot + oscillation (P only)</tspan>
</text>
<circle cx="1202.0" cy="263.63247863247864" r="4.5" fill="#dc2626"/>
<text x="1027.0" y="249.6" text-anchor="start" font-family="Segoe UI, Helvetica, Arial, sans-serif" font-size="12" font-weight="700" fill="#b91c1c">
<tspan x="1027.0" dy="0.0">steady-state error remains</tspan>
</text>
<circle cx="229.0" cy="215.16239316239313" r="4.5" fill="#d97706"/>
<text x="516.0" y="237.2" text-anchor="start" font-family="Segoe UI, Helvetica, Arial, sans-serif" font-size="12" font-weight="700" fill="#92400e">
<tspan x="516.0" dy="0.0">oscillation resolved, offset still remains (P+D)</tspan>
</text>
<circle cx="1216.0" cy="236.45299145299145" r="4.5" fill="#16a34a"/>
<text x="838.0" y="206.5" text-anchor="start" font-family="Segoe UI, Helvetica, Arial, sans-serif" font-size="12" font-weight="700" fill="#15803d">
<tspan x="838.0" dy="0.0">I keeps closing the gap → converges on target (P+D+I)</tspan>
</text>
<rect x="925" y="130" width="330" height="118" rx="12" fill="#ffffff" stroke="#cbd5e1" stroke-width="1.4"/>
<text x="940" y="152.0" text-anchor="start" font-family="Segoe UI, Helvetica, Arial, sans-serif" font-size="13.5" font-weight="800" fill="#1e293b">
<tspan x="940" dy="0.0">Legend</tspan>
</text>
<line x1="940" y1="176" x2="968" y2="176" stroke="#dc2626" stroke-width="3.5"/>
<text x="978" y="180.0" text-anchor="start" font-family="Segoe UI, Helvetica, Arial, sans-serif" font-size="12" font-weight="600" fill="#334155">
<tspan x="978" dy="0.0">P only  —  Kp = 0.8</tspan>
</text>
<line x1="940" y1="202" x2="968" y2="202" stroke="#d97706" stroke-width="3.5"/>
<text x="978" y="206.0" text-anchor="start" font-family="Segoe UI, Helvetica, Arial, sans-serif" font-size="12" font-weight="600" fill="#334155">
<tspan x="978" dy="0.0">P + D  —  Kp = 0.8, Kd = 0.055</tspan>
</text>
<line x1="940" y1="228" x2="968" y2="228" stroke="#16a34a" stroke-width="3.5"/>
<text x="978" y="232.0" text-anchor="start" font-family="Segoe UI, Helvetica, Arial, sans-serif" font-size="12" font-weight="600" fill="#334155">
<tspan x="978" dy="0.0">P + D + I  —  Kp = 0.8, Ki = 0.075, Kd = 0.055</tspan>
</text>
<text x="650.0" y="780.0" text-anchor="middle" font-family="Segoe UI, Helvetica, Arial, sans-serif" font-size="12" font-weight="500" fill="#94a3b8">
<tspan x="650.0" dy="0.0">Simulated for illustration — same gains used in turn_control, run against a simplified plant model with a constant disturbance</tspan>
</text>

</svg>