<svg viewBox="0 0 1300 820" xmlns="http://www.w3.org/2000/svg" font-family="Segoe UI, Helvetica, Arial, sans-serif">
<rect x="0" y="0" width="1300" height="820" fill="#f8fafc"/>
<defs>
  <marker id="arrowhead" markerWidth="10" markerHeight="10" refX="7" refY="3" orient="auto">
    <path d="M0,0 L8,3 L0,6 z" fill="#64748b"/>
  </marker>
  <filter id="soft-shadow" x="-20%" y="-20%" width="140%" height="140%">
    <feDropShadow dx="0" dy="2" stdDeviation="2.2" flood-color="#0f172a" flood-opacity="0.18"/>
  </filter>
</defs>

<text x="650.0" y="42.0" text-anchor="middle" font-family="Segoe UI, Helvetica, Arial, sans-serif" font-size="23" font-weight="800" fill="#0f172a">
<tspan x="650.0" dy="0.0">STEP RESPONSE BY TUNING STAGE — forward_control</tspan>
</text>
<text x="650.0" y="68.0" text-anchor="middle" font-family="Segoe UI, Helvetica, Arial, sans-serif" font-size="13.5" font-weight="500" fill="#64748b">
<tspan x="650.0" dy="0.0">Same method, simulated with the real forward_control gains against an 8° drift correction</tspan>
</text>
<line x1="110.0" y1="130" x2="110.0" y2="660" stroke="#e2e8f0" stroke-width="1"/>
<text x="110.0" y="682.0" text-anchor="middle" font-family="Segoe UI, Helvetica, Arial, sans-serif" font-size="11.5" font-weight="500" fill="#94a3b8">
<tspan x="110.0" dy="0.0">0s</tspan>
</text>
<line x1="250.0" y1="130" x2="250.0" y2="660" stroke="#e2e8f0" stroke-width="1"/>
<text x="250.0" y="682.0" text-anchor="middle" font-family="Segoe UI, Helvetica, Arial, sans-serif" font-size="11.5" font-weight="500" fill="#94a3b8">
<tspan x="250.0" dy="0.0">1s</tspan>
</text>
<line x1="390.0" y1="130" x2="390.0" y2="660" stroke="#e2e8f0" stroke-width="1"/>
<text x="390.0" y="682.0" text-anchor="middle" font-family="Segoe UI, Helvetica, Arial, sans-serif" font-size="11.5" font-weight="500" fill="#94a3b8">
<tspan x="390.0" dy="0.0">2s</tspan>
</text>
<line x1="530.0" y1="130" x2="530.0" y2="660" stroke="#e2e8f0" stroke-width="1"/>
<text x="530.0" y="682.0" text-anchor="middle" font-family="Segoe UI, Helvetica, Arial, sans-serif" font-size="11.5" font-weight="500" fill="#94a3b8">
<tspan x="530.0" dy="0.0">3s</tspan>
</text>
<line x1="670.0" y1="130" x2="670.0" y2="660" stroke="#e2e8f0" stroke-width="1"/>
<text x="670.0" y="682.0" text-anchor="middle" font-family="Segoe UI, Helvetica, Arial, sans-serif" font-size="11.5" font-weight="500" fill="#94a3b8">
<tspan x="670.0" dy="0.0">4s</tspan>
</text>
<line x1="810.0" y1="130" x2="810.0" y2="660" stroke="#e2e8f0" stroke-width="1"/>
<text x="810.0" y="682.0" text-anchor="middle" font-family="Segoe UI, Helvetica, Arial, sans-serif" font-size="11.5" font-weight="500" fill="#94a3b8">
<tspan x="810.0" dy="0.0">5s</tspan>
</text>
<line x1="950.0" y1="130" x2="950.0" y2="660" stroke="#e2e8f0" stroke-width="1"/>
<text x="950.0" y="682.0" text-anchor="middle" font-family="Segoe UI, Helvetica, Arial, sans-serif" font-size="11.5" font-weight="500" fill="#94a3b8">
<tspan x="950.0" dy="0.0">6s</tspan>
</text>
<line x1="1090.0" y1="130" x2="1090.0" y2="660" stroke="#e2e8f0" stroke-width="1"/>
<text x="1090.0" y="682.0" text-anchor="middle" font-family="Segoe UI, Helvetica, Arial, sans-serif" font-size="11.5" font-weight="500" fill="#94a3b8">
<tspan x="1090.0" dy="0.0">7s</tspan>
</text>
<line x1="1230.0" y1="130" x2="1230.0" y2="660" stroke="#e2e8f0" stroke-width="1"/>
<text x="1230.0" y="682.0" text-anchor="middle" font-family="Segoe UI, Helvetica, Arial, sans-serif" font-size="11.5" font-weight="500" fill="#94a3b8">
<tspan x="1230.0" dy="0.0">8s</tspan>
</text>
<line x1="110" y1="593.75" x2="1230" y2="593.75" stroke="#e2e8f0" stroke-width="1"/>
<text x="96" y="597.8" text-anchor="end" font-family="Segoe UI, Helvetica, Arial, sans-serif" font-size="11.5" font-weight="500" fill="#94a3b8">
<tspan x="96" dy="0.0">0°</tspan>
</text>
<line x1="110" y1="527.5" x2="1230" y2="527.5" stroke="#e2e8f0" stroke-width="1"/>
<text x="96" y="531.5" text-anchor="end" font-family="Segoe UI, Helvetica, Arial, sans-serif" font-size="11.5" font-weight="500" fill="#94a3b8">
<tspan x="96" dy="0.0">2°</tspan>
</text>
<line x1="110" y1="461.25" x2="1230" y2="461.25" stroke="#e2e8f0" stroke-width="1"/>
<text x="96" y="465.2" text-anchor="end" font-family="Segoe UI, Helvetica, Arial, sans-serif" font-size="11.5" font-weight="500" fill="#94a3b8">
<tspan x="96" dy="0.0">4°</tspan>
</text>
<line x1="110" y1="395.0" x2="1230" y2="395.0" stroke="#e2e8f0" stroke-width="1"/>
<text x="96" y="399.0" text-anchor="end" font-family="Segoe UI, Helvetica, Arial, sans-serif" font-size="11.5" font-weight="500" fill="#94a3b8">
<tspan x="96" dy="0.0">6°</tspan>
</text>
<line x1="110" y1="328.75" x2="1230" y2="328.75" stroke="#e2e8f0" stroke-width="1"/>
<text x="96" y="332.8" text-anchor="end" font-family="Segoe UI, Helvetica, Arial, sans-serif" font-size="11.5" font-weight="500" fill="#94a3b8">
<tspan x="96" dy="0.0">8°</tspan>
</text>
<line x1="110" y1="262.5" x2="1230" y2="262.5" stroke="#e2e8f0" stroke-width="1"/>
<text x="96" y="266.5" text-anchor="end" font-family="Segoe UI, Helvetica, Arial, sans-serif" font-size="11.5" font-weight="500" fill="#94a3b8">
<tspan x="96" dy="0.0">10°</tspan>
</text>
<line x1="110" y1="196.25" x2="1230" y2="196.25" stroke="#e2e8f0" stroke-width="1"/>
<text x="96" y="200.2" text-anchor="end" font-family="Segoe UI, Helvetica, Arial, sans-serif" font-size="11.5" font-weight="500" fill="#94a3b8">
<tspan x="96" dy="0.0">12°</tspan>
</text>
<line x1="110" y1="130.0" x2="1230" y2="130.0" stroke="#e2e8f0" stroke-width="1"/>
<text x="96" y="134.0" text-anchor="end" font-family="Segoe UI, Helvetica, Arial, sans-serif" font-size="11.5" font-weight="500" fill="#94a3b8">
<tspan x="96" dy="0.0">14°</tspan>
</text>
<line x1="110" y1="660" x2="1230" y2="660" stroke="#334155" stroke-width="1.6"/>
<line x1="110" y1="130" x2="110" y2="660" stroke="#334155" stroke-width="1.6"/>
<text x="670.0" y="710.0" text-anchor="middle" font-family="Segoe UI, Helvetica, Arial, sans-serif" font-size="13" font-weight="700" fill="#334155">
<tspan x="670.0" dy="0.0">Time (s)</tspan>
</text>
<text x="40" y="395.0" text-anchor="middle" font-family="Segoe UI, Helvetica, Arial, sans-serif" font-size="13" font-weight="700" fill="#334155">
<tspan x="40" dy="0.0">Yaw (°)</tspan>
</text>
<line x1="110" y1="328.75" x2="1230" y2="328.75" stroke="#0f172a" stroke-width="1.8" stroke-dasharray="8,5"/>
<text x="1226" y="318.8" text-anchor="end" font-family="Segoe UI, Helvetica, Arial, sans-serif" font-size="12.5" font-weight="700" fill="#0f172a">
<tspan x="1226" dy="0.0">target: 8° drift correction</tspan>
</text>
<polyline points="110.0,593.7 114.2,592.5 118.4,586.8 122.6,574.8 126.8,555.9 131.0,530.5 135.2,499.5 139.4,464.2 143.6,426.1 147.8,387.0 152.0,348.3 156.2,311.7 160.4,278.6 164.6,250.1 168.8,227.1 173.0,210.3 177.2,200.1 181.4,196.6 185.6,199.3 189.8,208.1 194.0,222.0 198.2,240.3 202.4,261.9 206.6,285.8 210.8,310.8 215.0,335.8 219.2,359.8 223.4,381.8 227.6,401.1 231.8,416.9 236.0,428.8 240.2,436.5 244.4,440.0 248.6,439.3 252.8,434.6 257.0,426.5 261.2,415.4 265.4,402.0 269.6,386.9 273.8,370.9 278.0,354.7 282.2,339.0 286.4,324.4 290.6,311.4 294.8,300.6 299.0,292.2 303.2,286.5 307.4,283.5 311.6,283.2 315.8,285.6 320.0,290.2 324.2,296.9 328.4,305.2 332.6,314.7 336.8,324.9 341.0,335.4 345.2,345.6 349.4,355.3 353.6,363.9 357.8,371.3 362.0,377.2 366.2,381.3 370.4,383.7 374.6,384.4 378.8,383.3 383.0,380.7 387.2,376.7 391.4,371.6 395.6,365.7 399.8,359.2 404.0,352.5 408.2,345.8 412.4,339.4 416.6,333.6 420.8,328.6 425.0,324.6 429.2,321.6 433.4,319.7 437.6,319.0 441.8,319.4 446.0,320.8 450.2,323.2 454.4,326.3 458.6,330.0 462.8,334.1 467.0,338.4 471.2,342.8 475.4,346.9 479.6,350.8 483.8,354.2 488.0,356.9 492.2,359.1 496.4,360.5 500.6,361.1 504.8,361.1 509.0,360.3 513.2,359.0 517.4,357.1 521.6,354.8 525.8,352.2 530.0,349.4 534.2,346.6 538.4,343.9 542.6,341.3 546.8,339.1 551.0,337.2 555.2,335.7 559.4,334.6 563.6,334.1 567.8,334.0 572.0,334.4 576.2,335.1 580.4,336.3 584.6,337.7 588.8,339.3 593.0,341.1 597.2,342.9 601.4,344.7 605.6,346.4 609.8,347.9 614.0,349.2 618.2,350.2 622.4,351.0 626.6,351.4 630.8,351.5 635.0,351.4 639.2,350.9 643.4,350.3 647.6,349.4 651.8,348.4 656.0,347.3 660.2,346.1 664.4,344.9 668.6,343.8 672.8,342.8 677.0,341.9 681.2,341.2 685.4,340.7 689.6,340.4 693.8,340.2 698.0,340.3 702.2,340.5 706.4,340.9 710.6,341.4 714.8,342.1 719.0,342.8 723.2,343.5 727.4,344.3 731.6,345.0 735.8,345.7 740.0,346.2 744.2,346.7 748.4,347.1 752.6,347.4 756.8,347.5 761.0,347.5 765.2,347.4 769.4,347.1 773.6,346.8 777.8,346.4 782.0,346.0 786.2,345.5 790.4,345.0 794.6,344.6 798.8,344.1 803.0,343.7 807.2,343.4 811.4,343.1 815.6,342.9 819.8,342.8 824.0,342.8 828.2,342.9 832.4,343.0 836.6,343.2 840.8,343.4 845.0,343.7 849.2,344.0 853.4,344.3 857.6,344.6 861.8,344.9 866.0,345.2 870.2,345.4 874.4,345.6 878.6,345.7 882.8,345.8 887.0,345.8 891.2,345.8 895.4,345.7 899.6,345.6 903.8,345.5 908.0,345.3 912.2,345.1 916.4,344.9 920.6,344.7 924.8,344.5 929.0,344.3 933.2,344.2 937.4,344.1 941.6,344.0 945.8,343.9 950.0,343.9 954.2,343.9 958.4,343.9 962.6,344.0 966.8,344.1 971.0,344.2 975.2,344.3 979.4,344.4 983.6,344.6 987.8,344.7 992.0,344.8 996.2,344.9 1000.4,345.0 1004.6,345.1 1008.8,345.1 1013.0,345.1 1017.2,345.1 1021.4,345.1 1025.6,345.1 1029.8,345.0 1034.0,345.0 1038.2,344.9 1042.4,344.8 1046.6,344.7 1050.8,344.6 1055.0,344.6 1059.2,344.5 1063.4,344.4 1067.6,344.4 1071.8,344.4 1076.0,344.3 1080.2,344.3 1084.4,344.3 1088.6,344.4 1092.8,344.4 1097.0,344.4 1101.2,344.5 1105.4,344.5 1109.6,344.6 1113.8,344.6 1118.0,344.7 1122.2,344.7 1126.4,344.8 1130.6,344.8 1134.8,344.8 1139.0,344.9 1143.2,344.9 1147.4,344.9 1151.6,344.8 1155.8,344.8 1160.0,344.8 1164.2,344.8 1168.4,344.7 1172.6,344.7 1176.8,344.7 1181.0,344.6 1185.2,344.6 1189.4,344.6 1193.6,344.6 1197.8,344.5 1202.0,344.5 1206.2,344.5 1210.4,344.5 1214.6,344.5 1218.8,344.5 1223.0,344.6 1227.2,344.6" fill="none" stroke="#dc2626" stroke-width="3.2" stroke-linejoin="round" stroke-linecap="round"/>
<polyline points="110.0,593.7 114.2,592.5 118.4,586.8 122.6,574.8 126.8,556.0 131.0,530.9 135.2,500.2 139.4,465.5 143.6,428.3 147.8,390.1 152.0,352.7 156.2,317.4 160.4,285.7 164.6,258.6 168.8,237.0 173.0,221.4 177.2,212.1 181.4,209.0 185.6,211.9 189.8,220.2 194.0,233.3 198.2,250.2 202.4,270.0 206.6,291.7 210.8,314.2 215.0,336.5 219.2,357.7 223.4,376.9 227.6,393.4 231.8,406.8 236.0,416.7 240.2,422.9 244.4,425.3 248.6,424.1 252.8,419.7 257.0,412.3 261.2,402.6 265.4,391.0 269.6,378.3 273.8,364.9 278.0,351.6 282.2,338.9 286.4,327.3 290.6,317.1 294.8,308.8 299.0,302.6 303.2,298.6 307.4,296.8 311.6,297.1 315.8,299.5 320.0,303.6 324.2,309.2 328.4,315.9 332.6,323.4 336.8,331.3 341.0,339.2 345.2,346.9 349.4,353.9 353.6,360.1 357.8,365.2 362.0,369.1 366.2,371.7 370.4,373.0 374.6,373.0 378.8,371.8 383.0,369.5 387.2,366.3 391.4,362.4 395.6,358.0 399.8,353.4 404.0,348.6 408.2,344.0 412.4,339.8 416.6,336.0 420.8,332.9 425.0,330.4 429.2,328.7 433.4,327.8 437.6,327.7 441.8,328.3 446.0,329.6 450.2,331.4 454.4,333.7 458.6,336.2 462.8,339.0 467.0,341.8 471.2,344.6 475.4,347.1 479.6,349.4 483.8,351.4 488.0,352.9 492.2,354.0 496.4,354.6 500.6,354.7 504.8,354.4 509.0,353.7 513.2,352.7 517.4,351.4 521.6,349.9 525.8,348.3 530.0,346.6 534.2,345.0 538.4,343.4 542.6,342.0 546.8,340.8 551.0,339.9 555.2,339.2 559.4,338.8 563.6,338.6 567.8,338.8 572.0,339.2 576.2,339.7 580.4,340.5 584.6,341.4 588.8,342.3 593.0,343.3 597.2,344.3 601.4,345.2 605.6,346.1 609.8,346.8 614.0,347.4 618.2,347.8 622.4,348.1 626.6,348.2 630.8,348.2 635.0,348.0 639.2,347.6 643.4,347.2 647.6,346.7 651.8,346.1 656.0,345.5 660.2,344.9 664.4,344.4 668.6,343.9 672.8,343.4 677.0,343.1 681.2,342.8 685.4,342.6 689.6,342.5 693.8,342.6 698.0,342.7 702.2,342.8 706.4,343.1 710.6,343.4 714.8,343.7 719.0,344.1 723.2,344.4 727.4,344.8 731.6,345.1 735.8,345.3 740.0,345.6 744.2,345.7 748.4,345.9 752.6,345.9 756.8,345.9 761.0,345.8 765.2,345.7 769.4,345.6 773.6,345.4 777.8,345.2 782.0,345.0 786.2,344.8 790.4,344.6 794.6,344.4 798.8,344.3 803.0,344.1 807.2,344.0 811.4,343.9 815.6,343.9 819.8,343.9 824.0,343.9 828.2,344.0 832.4,344.1 836.6,344.2 840.8,344.3 845.0,344.4 849.2,344.5 853.4,344.6 857.6,344.8 861.8,344.9 866.0,344.9 870.2,345.0 874.4,345.1 878.6,345.1 882.8,345.1 887.0,345.1 891.2,345.1 895.4,345.0 899.6,344.9 903.8,344.9 908.0,344.8 912.2,344.7 916.4,344.7 920.6,344.6 924.8,344.5 929.0,344.5 933.2,344.4 937.4,344.4 941.6,344.4 945.8,344.4 950.0,344.4 954.2,344.4 958.4,344.4 962.6,344.5 966.8,344.5 971.0,344.5 975.2,344.6 979.4,344.6 983.6,344.7 987.8,344.7 992.0,344.7 996.2,344.8 1000.4,344.8 1004.6,344.8 1008.8,344.8 1013.0,344.8 1017.2,344.8 1021.4,344.8 1025.6,344.8 1029.8,344.7 1034.0,344.7 1038.2,344.7 1042.4,344.7 1046.6,344.6 1050.8,344.6 1055.0,344.6 1059.2,344.6 1063.4,344.6 1067.6,344.6 1071.8,344.6 1076.0,344.6 1080.2,344.6 1084.4,344.6 1088.6,344.6 1092.8,344.6 1097.0,344.6 1101.2,344.6 1105.4,344.6 1109.6,344.7 1113.8,344.7 1118.0,344.7 1122.2,344.7 1126.4,344.7 1130.6,344.7 1134.8,344.7 1139.0,344.7 1143.2,344.7 1147.4,344.7 1151.6,344.7 1155.8,344.7 1160.0,344.7 1164.2,344.7 1168.4,344.7 1172.6,344.6 1176.8,344.6 1181.0,344.6 1185.2,344.6 1189.4,344.6 1193.6,344.6 1197.8,344.6 1202.0,344.6 1206.2,344.6 1210.4,344.6 1214.6,344.6 1218.8,344.6 1223.0,344.6 1227.2,344.6" fill="none" stroke="#d97706" stroke-width="3.2" stroke-linejoin="round" stroke-linecap="round"/>
<polyline points="110.0,593.7 114.2,592.5 118.4,586.8 122.6,574.8 126.8,555.9 131.0,530.7 135.2,499.9 139.4,464.9 143.6,427.4 147.8,388.9 152.0,351.1 156.2,315.4 160.4,283.3 164.6,255.7 168.8,233.7 173.0,217.7 177.2,208.0 181.4,204.6 185.6,207.3 189.8,215.6 194.0,228.6 198.2,245.7 202.4,265.7 206.6,287.7 210.8,310.6 215.0,333.3 219.2,354.9 223.4,374.7 227.6,391.7 231.8,405.6 236.0,415.9 240.2,422.4 244.4,425.2 248.6,424.2 252.8,419.8 257.0,412.5 261.2,402.6 265.4,390.8 269.6,377.8 273.8,364.0 278.0,350.3 282.2,337.0 286.4,324.9 290.6,314.3 294.8,305.5 299.0,298.8 303.2,294.4 307.4,292.3 311.6,292.4 315.8,294.6 320.0,298.7 324.2,304.3 328.4,311.1 332.6,318.8 336.8,327.0 341.0,335.2 345.2,343.2 349.4,350.6 353.6,357.2 357.8,362.7 362.0,366.9 366.2,369.8 370.4,371.3 374.6,371.4 378.8,370.3 383.0,368.0 387.2,364.8 391.4,360.8 395.6,356.2 399.8,351.3 404.0,346.3 408.2,341.4 412.4,336.8 416.6,332.7 420.8,329.3 425.0,326.5 429.2,324.6 433.4,323.5 437.6,323.2 441.8,323.7 446.0,324.9 450.2,326.7 454.4,329.0 458.6,331.7 462.8,334.6 467.0,337.5 471.2,340.5 475.4,343.2 479.6,345.7 483.8,347.8 488.0,349.5 492.2,350.7 496.4,351.5 500.6,351.7 504.8,351.5 509.0,350.8 513.2,349.7 517.4,348.4 521.6,346.8 525.8,345.0 530.0,343.2 534.2,341.4 538.4,339.7 542.6,338.1 546.8,336.8 551.0,335.6 555.2,334.8 559.4,334.3 563.6,334.1 567.8,334.1 572.0,334.4 576.2,335.0 580.4,335.8 584.6,336.7 588.8,337.7 593.0,338.7 597.2,339.8 601.4,340.8 605.6,341.7 609.8,342.5 614.0,343.2 618.2,343.7 622.4,344.0 626.6,344.1 630.8,344.1 635.0,343.9 639.2,343.6 643.4,343.1 647.6,342.5 651.8,341.9 656.0,341.2 660.2,340.6 664.4,339.9 668.6,339.3 672.8,338.8 677.0,338.3 681.2,338.0 685.4,337.7 689.6,337.6 693.8,337.6 698.0,337.6 702.2,337.8 706.4,338.0 710.6,338.3 714.8,338.7 719.0,339.0 723.2,339.4 727.4,339.8 731.6,340.1 735.8,340.4 740.0,340.6 744.2,340.8 748.4,341.0 752.6,341.0 756.8,341.0 761.0,341.0 765.2,340.8 769.4,340.7 773.6,340.5 777.8,340.2 782.0,340.0 786.2,339.7 790.4,339.5 794.6,339.3 798.8,339.0 803.0,338.9 807.2,338.7 811.4,338.6 815.6,338.5 819.8,338.5 824.0,338.5 828.2,338.5 832.4,338.6 836.6,338.7 840.8,338.8 845.0,338.9 849.2,339.0 853.4,339.1 857.6,339.2 861.8,339.3 866.0,339.4 870.2,339.5 874.4,339.5 878.6,339.5 882.8,339.5 887.0,339.5 891.2,339.5 895.4,339.4 899.6,339.3 903.8,339.2 908.0,339.1 912.2,339.0 916.4,338.9 920.6,338.8 924.8,338.7 929.0,338.7 933.2,338.6 937.4,338.5 941.6,338.5 945.8,338.5 950.0,338.4 954.2,338.4 958.4,338.4 962.6,338.5 966.8,338.5 971.0,338.5 975.2,338.5 979.4,338.6 983.6,338.6 987.8,338.6 992.0,338.7 996.2,338.7 1000.4,338.7 1004.6,338.7 1008.8,338.7 1013.0,338.7 1017.2,338.6 1021.4,338.6 1025.6,338.6 1029.8,338.5 1034.0,338.5 1038.2,338.4 1042.4,338.4 1046.6,338.3 1050.8,338.3 1055.0,338.2 1059.2,338.2 1063.4,338.2 1067.6,338.1 1071.8,338.1 1076.0,338.1 1080.2,338.1 1084.4,338.1 1088.6,338.1 1092.8,338.1 1097.0,338.1 1101.2,338.1 1105.4,338.1 1109.6,338.1 1113.8,338.1 1118.0,338.1 1122.2,338.1 1126.4,338.1 1130.6,338.1 1134.8,338.0 1139.0,338.0 1143.2,338.0 1147.4,338.0 1151.6,338.0 1155.8,337.9 1160.0,337.9 1164.2,337.9 1168.4,337.9 1172.6,337.8 1176.8,337.8 1181.0,337.8 1185.2,337.8 1189.4,337.7 1193.6,337.7 1197.8,337.7 1202.0,337.7 1206.2,337.7 1210.4,337.6 1214.6,337.6 1218.8,337.6 1223.0,337.6 1227.2,337.6" fill="none" stroke="#16a34a" stroke-width="3.2" stroke-linejoin="round" stroke-linecap="round"/>
<circle cx="187.0" cy="209.5" r="4.5" fill="#dc2626"/>
<text x="197.0" y="201.5" text-anchor="start" font-family="Segoe UI, Helvetica, Arial, sans-serif" font-size="12" font-weight="700" fill="#b91c1c">
<tspan x="197.0" dy="0.0">quick overshoot, high Kp reacts fast</tspan>
</text>
<circle cx="1202.0" cy="344.65000000000003" r="4.5" fill="#dc2626"/>
<text x="838.0" y="328.7" text-anchor="start" font-family="Segoe UI, Helvetica, Arial, sans-serif" font-size="12" font-weight="700" fill="#b91c1c">
<tspan x="838.0" dy="0.0">small steady offset remains (P, P+D)</tspan>
</text>
<circle cx="376.0" cy="368.5" r="4.5" fill="#d97706"/>
<text x="411.0" y="392.5" text-anchor="start" font-family="Segoe UI, Helvetica, Arial, sans-serif" font-size="12" font-weight="700" fill="#92400e">
<tspan x="411.0" dy="0.0">settles almost as fast — Kd = 0.02 is small on purpose</tspan>
</text>
<circle cx="1216.0" cy="337.69374999999997" r="4.5" fill="#16a34a"/>
<text x="754.0" y="377.7" text-anchor="start" font-family="Segoe UI, Helvetica, Arial, sans-serif" font-size="12" font-weight="700" fill="#15803d">
<tspan x="754.0" dy="0.0">I closes the last bit of drift over time (P+D+I)</tspan>
</text>
<rect x="835" y="130" width="420" height="118" rx="12" fill="#ffffff" stroke="#cbd5e1" stroke-width="1.4"/>
<text x="850" y="152.0" text-anchor="start" font-family="Segoe UI, Helvetica, Arial, sans-serif" font-size="13.5" font-weight="800" fill="#1e293b">
<tspan x="850" dy="0.0">Legend</tspan>
</text>
<line x1="850" y1="176" x2="878" y2="176" stroke="#dc2626" stroke-width="3.5"/>
<text x="888" y="180.0" text-anchor="start" font-family="Segoe UI, Helvetica, Arial, sans-serif" font-size="12" font-weight="600" fill="#334155">
<tspan x="888" dy="0.0">P only  —  Kp = 2.5</tspan>
</text>
<line x1="850" y1="202" x2="878" y2="202" stroke="#d97706" stroke-width="3.5"/>
<text x="888" y="206.0" text-anchor="start" font-family="Segoe UI, Helvetica, Arial, sans-serif" font-size="12" font-weight="600" fill="#334155">
<tspan x="888" dy="0.0">P + D  —  Kp = 2.5, Kd = 0.02</tspan>
</text>
<line x1="850" y1="228" x2="878" y2="228" stroke="#16a34a" stroke-width="3.5"/>
<text x="888" y="232.0" text-anchor="start" font-family="Segoe UI, Helvetica, Arial, sans-serif" font-size="12" font-weight="600" fill="#334155">
<tspan x="888" dy="0.0">P + D + I  —  Kp = 2.5, Ki = 0.15, Kd = 0.02</tspan>
</text>
<text x="650.0" y="780.0" text-anchor="middle" font-family="Segoe UI, Helvetica, Arial, sans-serif" font-size="12" font-weight="500" fill="#94a3b8">
<tspan x="650.0" dy="0.0">Simulated for illustration — same gains used in forward_control, run against the same simplified plant model as the turn_control chart</tspan>
</text>

</svg>